<mxfile host="app.diagrams.net" modified="2022-02-23T18:36:04.041Z" agent="5.0 (Windows NT 10.0; Win64; x64) AppleWebKit/537.36 (KHTML, like Gecko) Chrome/98.0.4758.102 Safari/537.36" etag="OzLds8rXDXrCm16V8j7n" version="16.6.3" type="github">
  <diagram id="ff3ZTuFhQ4VnkhR5qnry" name="Page-1">
    <mxGraphModel dx="1422" dy="762" grid="1" gridSize="10" guides="1" tooltips="1" connect="1" arrows="1" fold="1" page="1" pageScale="1" pageWidth="850" pageHeight="1100" math="0" shadow="0">
      <root>
        <mxCell id="0" />
        <mxCell id="1" parent="0" />
        <mxCell id="0zgwnNxIby40EZqbaB58-37" style="edgeStyle=none;rounded=0;orthogonalLoop=1;jettySize=auto;html=1;fontFamily=Helvetica;endArrow=classic;endFill=1;dashed=1;dashPattern=1 1;" edge="1" parent="1" source="0zgwnNxIby40EZqbaB58-5" target="0zgwnNxIby40EZqbaB58-10">
          <mxGeometry relative="1" as="geometry">
            <Array as="points" />
          </mxGeometry>
        </mxCell>
        <mxCell id="0zgwnNxIby40EZqbaB58-42" style="edgeStyle=none;rounded=0;orthogonalLoop=1;jettySize=auto;html=1;fontFamily=Helvetica;endArrow=none;endFill=0;" edge="1" parent="1" source="0zgwnNxIby40EZqbaB58-8" target="0zgwnNxIby40EZqbaB58-15">
          <mxGeometry relative="1" as="geometry" />
        </mxCell>
        <mxCell id="0zgwnNxIby40EZqbaB58-43" style="edgeStyle=none;rounded=0;orthogonalLoop=1;jettySize=auto;html=1;fontFamily=Helvetica;endArrow=none;endFill=0;" edge="1" parent="1" source="0zgwnNxIby40EZqbaB58-8" target="0zgwnNxIby40EZqbaB58-14">
          <mxGeometry relative="1" as="geometry" />
        </mxCell>
        <mxCell id="0zgwnNxIby40EZqbaB58-35" style="edgeStyle=none;rounded=0;orthogonalLoop=1;jettySize=auto;html=1;fontFamily=Helvetica;endArrow=classic;endFill=1;dashed=1;dashPattern=1 1;" edge="1" parent="1" source="0zgwnNxIby40EZqbaB58-10" target="0zgwnNxIby40EZqbaB58-11">
          <mxGeometry relative="1" as="geometry" />
        </mxCell>
        <mxCell id="0zgwnNxIby40EZqbaB58-10" value="ICN" style="sketch=0;outlineConnect=0;fontColor=#232F3E;gradientColor=none;fillColor=#232F3D;strokeColor=none;dashed=0;verticalLabelPosition=bottom;verticalAlign=top;align=center;html=1;fontSize=12;fontStyle=1;aspect=fixed;pointerEvents=1;shape=mxgraph.aws4.traditional_server;" vertex="1" parent="1">
          <mxGeometry x="484.5" y="450" width="45" height="78" as="geometry" />
        </mxCell>
        <mxCell id="0zgwnNxIby40EZqbaB58-28" style="edgeStyle=none;rounded=0;orthogonalLoop=1;jettySize=auto;html=1;fontFamily=Helvetica;endArrow=none;endFill=0;" edge="1" parent="1" source="0zgwnNxIby40EZqbaB58-11" target="0zgwnNxIby40EZqbaB58-14">
          <mxGeometry relative="1" as="geometry" />
        </mxCell>
        <mxCell id="0zgwnNxIby40EZqbaB58-30" style="edgeStyle=none;rounded=0;orthogonalLoop=1;jettySize=auto;html=1;fontFamily=Helvetica;endArrow=none;endFill=0;" edge="1" parent="1" source="0zgwnNxIby40EZqbaB58-11" target="0zgwnNxIby40EZqbaB58-15">
          <mxGeometry relative="1" as="geometry" />
        </mxCell>
        <mxCell id="0zgwnNxIby40EZqbaB58-66" style="edgeStyle=none;rounded=0;orthogonalLoop=1;jettySize=auto;html=1;dashed=1;fontFamily=Helvetica;fontColor=#000000;endArrow=classic;endFill=1;elbow=vertical;startArrow=classic;startFill=1;" edge="1" parent="1" source="0zgwnNxIby40EZqbaB58-16" target="0zgwnNxIby40EZqbaB58-4">
          <mxGeometry relative="1" as="geometry" />
        </mxCell>
        <mxCell id="0zgwnNxIby40EZqbaB58-67" style="edgeStyle=none;rounded=0;orthogonalLoop=1;jettySize=auto;html=1;dashed=1;fontFamily=Helvetica;fontColor=#000000;endArrow=classic;endFill=1;elbow=vertical;startArrow=classic;startFill=1;" edge="1" parent="1" source="0zgwnNxIby40EZqbaB58-16" target="0zgwnNxIby40EZqbaB58-5">
          <mxGeometry relative="1" as="geometry" />
        </mxCell>
        <mxCell id="0zgwnNxIby40EZqbaB58-16" value="devices" style="sketch=0;outlineConnect=0;gradientColor=none;fontColor=#545B64;strokeColor=none;fillColor=#879196;dashed=0;verticalLabelPosition=bottom;verticalAlign=top;align=center;html=1;fontSize=12;fontStyle=0;aspect=fixed;shape=mxgraph.aws4.illustration_devices;pointerEvents=1" vertex="1" parent="1">
          <mxGeometry x="397" y="100" width="55.68" height="40.65" as="geometry" />
        </mxCell>
        <mxCell id="0zgwnNxIby40EZqbaB58-18" style="edgeStyle=orthogonalEdgeStyle;rounded=0;orthogonalLoop=1;jettySize=auto;html=1;startArrow=classic;startFill=1;" edge="1" parent="1" source="0zgwnNxIby40EZqbaB58-17" target="0zgwnNxIby40EZqbaB58-16">
          <mxGeometry relative="1" as="geometry" />
        </mxCell>
        <mxCell id="0zgwnNxIby40EZqbaB58-17" value="users" style="sketch=0;outlineConnect=0;gradientColor=none;fontColor=#545B64;strokeColor=none;fillColor=#879196;dashed=0;verticalLabelPosition=bottom;verticalAlign=top;align=center;html=1;fontSize=12;fontStyle=0;aspect=fixed;shape=mxgraph.aws4.illustration_users;pointerEvents=1" vertex="1" parent="1">
          <mxGeometry x="280" y="80" width="40" height="40" as="geometry" />
        </mxCell>
        <mxCell id="0zgwnNxIby40EZqbaB58-45" value="SRVDCV144" style="points=[[0,0],[0.25,0],[0.5,0],[0.75,0],[1,0],[1,0.25],[1,0.5],[1,0.75],[1,1],[0.75,1],[0.5,1],[0.25,1],[0,1],[0,0.75],[0,0.5],[0,0.25]];outlineConnect=0;gradientColor=none;html=1;whiteSpace=wrap;fontSize=14;fontStyle=1;container=1;pointerEvents=0;collapsible=0;recursiveResize=0;shape=mxgraph.aws4.group;grIcon=mxgraph.aws4.group_on_premise;strokeColor=#5A6C86;fillColor=none;verticalAlign=top;align=left;spacingLeft=30;fontColor=#333333;dashed=0;fontFamily=Helvetica;" vertex="1" parent="1">
          <mxGeometry x="32" y="190" width="358" height="538" as="geometry" />
        </mxCell>
        <mxCell id="0zgwnNxIby40EZqbaB58-76" style="edgeStyle=none;rounded=0;orthogonalLoop=1;jettySize=auto;html=1;dashed=1;dashPattern=1 2;fontFamily=Helvetica;fontColor=#000000;endArrow=classic;endFill=1;elbow=vertical;" edge="1" parent="0zgwnNxIby40EZqbaB58-45" source="0zgwnNxIby40EZqbaB58-9" target="0zgwnNxIby40EZqbaB58-8">
          <mxGeometry relative="1" as="geometry" />
        </mxCell>
        <mxCell id="0zgwnNxIby40EZqbaB58-9" value="CMIS" style="sketch=0;outlineConnect=0;fontColor=#232F3E;gradientColor=none;fillColor=#232F3D;strokeColor=none;dashed=0;verticalLabelPosition=bottom;verticalAlign=top;align=center;html=1;fontSize=12;fontStyle=1;aspect=fixed;pointerEvents=1;shape=mxgraph.aws4.traditional_server;" vertex="1" parent="0zgwnNxIby40EZqbaB58-45">
          <mxGeometry x="50" y="260" width="45" height="78" as="geometry" />
        </mxCell>
        <mxCell id="0zgwnNxIby40EZqbaB58-75" style="edgeStyle=none;rounded=0;orthogonalLoop=1;jettySize=auto;html=1;dashed=1;dashPattern=1 2;fontFamily=Helvetica;fontColor=#000000;endArrow=classic;endFill=1;elbow=vertical;" edge="1" parent="0zgwnNxIby40EZqbaB58-45" source="0zgwnNxIby40EZqbaB58-7" target="0zgwnNxIby40EZqbaB58-8">
          <mxGeometry relative="1" as="geometry" />
        </mxCell>
        <mxCell id="0zgwnNxIby40EZqbaB58-7" value="ICN" style="sketch=0;outlineConnect=0;fontColor=#232F3E;gradientColor=none;fillColor=#232F3D;strokeColor=none;dashed=0;verticalLabelPosition=bottom;verticalAlign=top;align=center;html=1;fontSize=12;fontStyle=1;aspect=fixed;pointerEvents=1;shape=mxgraph.aws4.traditional_server;" vertex="1" parent="0zgwnNxIby40EZqbaB58-45">
          <mxGeometry x="248" y="260" width="45" height="78" as="geometry" />
        </mxCell>
        <mxCell id="0zgwnNxIby40EZqbaB58-8" value="CPE" style="sketch=0;outlineConnect=0;fontColor=#232F3E;gradientColor=none;fillColor=#232F3D;strokeColor=none;dashed=0;verticalLabelPosition=bottom;verticalAlign=top;align=center;html=1;fontSize=12;fontStyle=1;aspect=fixed;pointerEvents=1;shape=mxgraph.aws4.traditional_server;" vertex="1" parent="0zgwnNxIby40EZqbaB58-45">
          <mxGeometry x="147.5" y="260" width="45" height="78" as="geometry" />
        </mxCell>
        <mxCell id="0zgwnNxIby40EZqbaB58-4" value="IHS" style="sketch=0;outlineConnect=0;fontColor=#232F3E;gradientColor=none;fillColor=#232F3D;strokeColor=none;dashed=0;verticalLabelPosition=bottom;verticalAlign=top;align=center;html=1;fontSize=12;fontStyle=1;aspect=fixed;pointerEvents=1;shape=mxgraph.aws4.traditional_server;fontFamily=Helvetica;" vertex="1" parent="0zgwnNxIby40EZqbaB58-45">
          <mxGeometry x="288.34000000000003" y="40" width="45" height="78" as="geometry" />
        </mxCell>
        <mxCell id="0zgwnNxIby40EZqbaB58-39" style="edgeStyle=none;rounded=0;orthogonalLoop=1;jettySize=auto;html=1;fontFamily=Helvetica;endArrow=classic;endFill=1;dashed=1;dashPattern=1 1;" edge="1" parent="0zgwnNxIby40EZqbaB58-45" source="0zgwnNxIby40EZqbaB58-4" target="0zgwnNxIby40EZqbaB58-7">
          <mxGeometry relative="1" as="geometry" />
        </mxCell>
        <mxCell id="0zgwnNxIby40EZqbaB58-40" style="edgeStyle=none;rounded=0;orthogonalLoop=1;jettySize=auto;html=1;fontFamily=Helvetica;endArrow=classic;endFill=1;dashed=1;dashPattern=1 1;" edge="1" parent="0zgwnNxIby40EZqbaB58-45" source="0zgwnNxIby40EZqbaB58-4" target="0zgwnNxIby40EZqbaB58-8">
          <mxGeometry relative="1" as="geometry" />
        </mxCell>
        <mxCell id="0zgwnNxIby40EZqbaB58-41" style="edgeStyle=none;rounded=0;orthogonalLoop=1;jettySize=auto;html=1;fontFamily=Helvetica;endArrow=classic;endFill=1;dashed=1;dashPattern=1 1;" edge="1" parent="0zgwnNxIby40EZqbaB58-45" source="0zgwnNxIby40EZqbaB58-4" target="0zgwnNxIby40EZqbaB58-9">
          <mxGeometry relative="1" as="geometry" />
        </mxCell>
        <mxCell id="0zgwnNxIby40EZqbaB58-6" value="DMGR" style="sketch=0;outlineConnect=0;fontColor=#000000;fillColor=#6a00ff;strokeColor=#3700CC;dashed=0;verticalLabelPosition=bottom;verticalAlign=top;align=center;html=1;fontSize=12;fontStyle=1;aspect=fixed;pointerEvents=1;shape=mxgraph.aws4.traditional_server;" vertex="1" parent="0zgwnNxIby40EZqbaB58-45">
          <mxGeometry x="293" y="460" width="45" height="78" as="geometry" />
        </mxCell>
        <mxCell id="0zgwnNxIby40EZqbaB58-59" style="edgeStyle=none;rounded=0;orthogonalLoop=1;jettySize=auto;html=1;dashed=1;fontFamily=Helvetica;endArrow=classic;endFill=1;elbow=vertical;" edge="1" parent="0zgwnNxIby40EZqbaB58-45" source="0zgwnNxIby40EZqbaB58-6" target="0zgwnNxIby40EZqbaB58-9">
          <mxGeometry relative="1" as="geometry" />
        </mxCell>
        <mxCell id="0zgwnNxIby40EZqbaB58-60" style="edgeStyle=none;rounded=0;orthogonalLoop=1;jettySize=auto;html=1;dashed=1;fontFamily=Helvetica;endArrow=classic;endFill=1;elbow=vertical;" edge="1" parent="0zgwnNxIby40EZqbaB58-45" source="0zgwnNxIby40EZqbaB58-6" target="0zgwnNxIby40EZqbaB58-7">
          <mxGeometry relative="1" as="geometry" />
        </mxCell>
        <mxCell id="0zgwnNxIby40EZqbaB58-61" style="edgeStyle=none;rounded=0;orthogonalLoop=1;jettySize=auto;html=1;dashed=1;fontFamily=Helvetica;endArrow=classic;endFill=1;elbow=vertical;" edge="1" parent="0zgwnNxIby40EZqbaB58-45" source="0zgwnNxIby40EZqbaB58-6" target="0zgwnNxIby40EZqbaB58-8">
          <mxGeometry relative="1" as="geometry" />
        </mxCell>
        <mxCell id="0zgwnNxIby40EZqbaB58-46" value="SRVDCV145" style="points=[[0,0],[0.25,0],[0.5,0],[0.75,0],[1,0],[1,0.25],[1,0.5],[1,0.75],[1,1],[0.75,1],[0.5,1],[0.25,1],[0,1],[0,0.75],[0,0.5],[0,0.25]];outlineConnect=0;gradientColor=none;html=1;whiteSpace=wrap;fontSize=14;fontStyle=1;container=1;pointerEvents=0;collapsible=0;recursiveResize=0;shape=mxgraph.aws4.group;grIcon=mxgraph.aws4.group_on_premise;strokeColor=#5A6C86;fillColor=none;verticalAlign=top;align=left;spacingLeft=30;fontColor=#333333;dashed=0;fontFamily=Helvetica;" vertex="1" parent="1">
          <mxGeometry x="447" y="190" width="340" height="380" as="geometry" />
        </mxCell>
        <mxCell id="0zgwnNxIby40EZqbaB58-5" value="IHS" style="sketch=0;outlineConnect=0;fontColor=#232F3E;gradientColor=none;fillColor=#232F3D;strokeColor=none;dashed=0;verticalLabelPosition=bottom;verticalAlign=top;align=center;html=1;fontSize=12;fontStyle=1;aspect=fixed;pointerEvents=1;shape=mxgraph.aws4.traditional_server;" vertex="1" parent="0zgwnNxIby40EZqbaB58-46">
          <mxGeometry x="53" y="40" width="40.38" height="70" as="geometry" />
        </mxCell>
        <mxCell id="0zgwnNxIby40EZqbaB58-12" value="CMIS" style="sketch=0;outlineConnect=0;fontColor=#232F3E;gradientColor=none;fillColor=#232F3D;strokeColor=none;dashed=0;verticalLabelPosition=bottom;verticalAlign=top;align=center;html=1;fontSize=12;fontStyle=1;aspect=fixed;pointerEvents=1;shape=mxgraph.aws4.traditional_server;" vertex="1" parent="0zgwnNxIby40EZqbaB58-46">
          <mxGeometry x="253" y="260" width="45" height="78" as="geometry" />
        </mxCell>
        <mxCell id="0zgwnNxIby40EZqbaB58-38" style="edgeStyle=none;rounded=0;orthogonalLoop=1;jettySize=auto;html=1;fontFamily=Helvetica;endArrow=classic;endFill=1;dashed=1;dashPattern=1 1;" edge="1" parent="0zgwnNxIby40EZqbaB58-46" source="0zgwnNxIby40EZqbaB58-5" target="0zgwnNxIby40EZqbaB58-12">
          <mxGeometry relative="1" as="geometry" />
        </mxCell>
        <mxCell id="0zgwnNxIby40EZqbaB58-11" value="CPE" style="sketch=0;outlineConnect=0;fontColor=#232F3E;gradientColor=none;fillColor=#232F3D;strokeColor=none;dashed=0;verticalLabelPosition=bottom;verticalAlign=top;align=center;html=1;fontSize=12;fontStyle=1;aspect=fixed;pointerEvents=1;shape=mxgraph.aws4.traditional_server;" vertex="1" parent="0zgwnNxIby40EZqbaB58-46">
          <mxGeometry x="147.5" y="260" width="45" height="78" as="geometry" />
        </mxCell>
        <mxCell id="0zgwnNxIby40EZqbaB58-36" style="edgeStyle=none;rounded=0;orthogonalLoop=1;jettySize=auto;html=1;fontFamily=Helvetica;endArrow=classic;endFill=1;dashed=1;dashPattern=1 1;" edge="1" parent="0zgwnNxIby40EZqbaB58-46" source="0zgwnNxIby40EZqbaB58-5" target="0zgwnNxIby40EZqbaB58-11">
          <mxGeometry relative="1" as="geometry" />
        </mxCell>
        <mxCell id="0zgwnNxIby40EZqbaB58-52" style="edgeStyle=none;rounded=0;orthogonalLoop=1;jettySize=auto;html=1;dashed=1;fontFamily=Helvetica;endArrow=classic;endFill=1;dashPattern=1 2;" edge="1" parent="0zgwnNxIby40EZqbaB58-46" source="0zgwnNxIby40EZqbaB58-12" target="0zgwnNxIby40EZqbaB58-11">
          <mxGeometry relative="1" as="geometry" />
        </mxCell>
        <mxCell id="0zgwnNxIby40EZqbaB58-63" style="edgeStyle=none;rounded=0;orthogonalLoop=1;jettySize=auto;html=1;dashed=1;fontFamily=Helvetica;endArrow=classic;endFill=1;elbow=vertical;" edge="1" parent="1" source="0zgwnNxIby40EZqbaB58-6" target="0zgwnNxIby40EZqbaB58-10">
          <mxGeometry relative="1" as="geometry" />
        </mxCell>
        <mxCell id="0zgwnNxIby40EZqbaB58-64" style="edgeStyle=none;rounded=0;orthogonalLoop=1;jettySize=auto;html=1;dashed=1;fontFamily=Helvetica;endArrow=classic;endFill=1;elbow=vertical;" edge="1" parent="1" source="0zgwnNxIby40EZqbaB58-6" target="0zgwnNxIby40EZqbaB58-11">
          <mxGeometry relative="1" as="geometry" />
        </mxCell>
        <mxCell id="0zgwnNxIby40EZqbaB58-65" style="edgeStyle=none;rounded=0;orthogonalLoop=1;jettySize=auto;html=1;dashed=1;fontFamily=Helvetica;endArrow=classic;endFill=1;elbow=vertical;" edge="1" parent="1" source="0zgwnNxIby40EZqbaB58-6" target="0zgwnNxIby40EZqbaB58-12">
          <mxGeometry relative="1" as="geometry" />
        </mxCell>
        <mxCell id="0zgwnNxIby40EZqbaB58-68" value="Corporate data center" style="points=[[0,0],[0.25,0],[0.5,0],[0.75,0],[1,0],[1,0.25],[1,0.5],[1,0.75],[1,1],[0.75,1],[0.5,1],[0.25,1],[0,1],[0,0.75],[0,0.5],[0,0.25]];outlineConnect=0;gradientColor=none;html=1;whiteSpace=wrap;fontSize=14;fontStyle=1;container=1;pointerEvents=0;collapsible=0;recursiveResize=0;shape=mxgraph.aws4.group;grIcon=mxgraph.aws4.group_corporate_data_center;strokeColor=#5A6C86;fillColor=none;verticalAlign=top;align=left;spacingLeft=30;fontColor=#5A6C86;dashed=0;fontFamily=Helvetica;" vertex="1" parent="1">
          <mxGeometry x="427" y="580" width="243" height="250" as="geometry" />
        </mxCell>
        <mxCell id="0zgwnNxIby40EZqbaB58-14" value="Storage Area" style="sketch=0;outlineConnect=0;fontColor=#232F3E;gradientColor=none;fillColor=#232F3D;strokeColor=none;dashed=0;verticalLabelPosition=bottom;verticalAlign=top;align=center;html=1;fontSize=12;fontStyle=1;aspect=fixed;pointerEvents=1;shape=mxgraph.aws4.disk;" vertex="1" parent="0zgwnNxIby40EZqbaB58-68">
          <mxGeometry x="109.5" y="100" width="78" height="78" as="geometry" />
        </mxCell>
        <mxCell id="0zgwnNxIby40EZqbaB58-15" value="DB" style="sketch=0;outlineConnect=0;fontColor=#232F3E;gradientColor=none;fillColor=#232F3D;strokeColor=none;dashed=0;verticalLabelPosition=bottom;verticalAlign=top;align=center;html=1;fontSize=12;fontStyle=1;aspect=fixed;pointerEvents=1;shape=mxgraph.aws4.generic_database;" vertex="1" parent="0zgwnNxIby40EZqbaB58-68">
          <mxGeometry x="20" y="100" width="59" height="78" as="geometry" />
        </mxCell>
        <mxCell id="0zgwnNxIby40EZqbaB58-69" style="edgeStyle=none;rounded=0;orthogonalLoop=1;jettySize=auto;html=1;dashed=1;fontFamily=Helvetica;fontColor=#000000;endArrow=classic;endFill=1;elbow=vertical;dashPattern=1 1;" edge="1" parent="1" source="0zgwnNxIby40EZqbaB58-5" target="0zgwnNxIby40EZqbaB58-8">
          <mxGeometry relative="1" as="geometry" />
        </mxCell>
        <mxCell id="0zgwnNxIby40EZqbaB58-70" style="edgeStyle=none;rounded=0;orthogonalLoop=1;jettySize=auto;html=1;dashed=1;fontFamily=Helvetica;fontColor=#000000;endArrow=classic;endFill=1;elbow=vertical;dashPattern=1 1;" edge="1" parent="1" source="0zgwnNxIby40EZqbaB58-5" target="0zgwnNxIby40EZqbaB58-7">
          <mxGeometry relative="1" as="geometry" />
        </mxCell>
        <mxCell id="0zgwnNxIby40EZqbaB58-71" style="edgeStyle=none;rounded=0;orthogonalLoop=1;jettySize=auto;html=1;dashed=1;fontFamily=Helvetica;fontColor=#000000;endArrow=classic;endFill=1;elbow=vertical;dashPattern=1 1;" edge="1" parent="1" source="0zgwnNxIby40EZqbaB58-5" target="0zgwnNxIby40EZqbaB58-9">
          <mxGeometry relative="1" as="geometry" />
        </mxCell>
        <mxCell id="0zgwnNxIby40EZqbaB58-72" style="edgeStyle=none;rounded=0;orthogonalLoop=1;jettySize=auto;html=1;dashed=1;dashPattern=1 1;fontFamily=Helvetica;fontColor=#000000;endArrow=classic;endFill=1;elbow=vertical;" edge="1" parent="1" source="0zgwnNxIby40EZqbaB58-4" target="0zgwnNxIby40EZqbaB58-10">
          <mxGeometry relative="1" as="geometry" />
        </mxCell>
        <mxCell id="0zgwnNxIby40EZqbaB58-73" style="edgeStyle=none;rounded=0;orthogonalLoop=1;jettySize=auto;html=1;dashed=1;dashPattern=1 1;fontFamily=Helvetica;fontColor=#000000;endArrow=classic;endFill=1;elbow=vertical;" edge="1" parent="1" source="0zgwnNxIby40EZqbaB58-4" target="0zgwnNxIby40EZqbaB58-11">
          <mxGeometry relative="1" as="geometry" />
        </mxCell>
        <mxCell id="0zgwnNxIby40EZqbaB58-74" style="edgeStyle=none;rounded=0;orthogonalLoop=1;jettySize=auto;html=1;dashed=1;dashPattern=1 1;fontFamily=Helvetica;fontColor=#000000;endArrow=classic;endFill=1;elbow=vertical;" edge="1" parent="1" source="0zgwnNxIby40EZqbaB58-4" target="0zgwnNxIby40EZqbaB58-12">
          <mxGeometry relative="1" as="geometry" />
        </mxCell>
        <mxCell id="0zgwnNxIby40EZqbaB58-77" value="Arquitetura FIEP Ambiente de Desenvolvimento e Homologação" style="text;html=1;strokeColor=none;fillColor=none;align=center;verticalAlign=middle;whiteSpace=wrap;rounded=0;fontFamily=Helvetica;fontColor=#3B6FFF;fontSize=18;" vertex="1" parent="1">
          <mxGeometry x="155" y="20" width="555" height="50" as="geometry" />
        </mxCell>
      </root>
    </mxGraphModel>
  </diagram>
</mxfile>
